grf
version=1
nRows=15
nColumns=37
inDegrees=no
endheader
time	ground_force_1_vx	ground_force_1_vy	ground_force_1_vz	ground_force_1_px	ground_force_1_py	ground_force_1_pz	ground_moment_1_mx	ground_moment_1_my	ground_moment_1_mz	ground_force_2_vx	ground_force_2_vy	ground_force_2_vz	ground_force_2_px	ground_force_2_py	ground_force_2_pz	ground_moment_2_mx	ground_moment_2_my	ground_moment_2_mz	ground_force_3_vx	ground_force_3_vy	ground_force_3_vz	ground_force_3_px	ground_force_3_py	ground_force_3_pz	ground_moment_3_mx	ground_moment_3_my	ground_moment_3_mz	ground_force_4_vx	ground_force_4_vy	ground_force_4_vz	ground_force_4_px	ground_force_4_py	ground_force_4_pz	ground_moment_4_mx	ground_moment_4_my	ground_moment_4_mz
      1.75000000	      0.00000000	     -0.00000000	      0.00000000	      0.00000000	      0.00000000	      0.00000000	      0.00000000	      0.00000000	      0.00000000	     -4.91767073	     56.12260056	   -387.68908691	   -301.77709056	  -1124.17149110	      0.00000000	      0.00000000	      0.00000000	   4298.24993584	     -5.86230247	    -72.78074595	   -479.44332886	   -315.91739444	   -678.35646492	      0.00000000	      0.00000000	     -0.00000000	  -1277.42616414	      0.00000000	     -0.00000000	      0.00000000	      0.00000000	      0.00000000	      0.00000000	      0.00000000	      0.00000000	      0.00000000
      1.76000000	      0.00000000	     -0.00000000	      0.00000000	      0.00000000	      0.00000000	      0.00000000	      0.00000000	      0.00000000	      0.00000000	     -9.14263439	     53.20007324	   -369.39773560	   -298.53246445	  -1124.17064528	      0.00000000	      0.00000000	      0.00000000	   4086.98853626	     -8.71162333	    -77.91761704	   -509.42636108	   -314.59988394	   -676.47742338	      0.00000000	      0.00000000	     -0.00000000	  -1656.30748347	      0.00000000	     -0.00000000	      0.00000000	      0.00000000	      0.00000000	      0.00000000	      0.00000000	      0.00000000	      0.00000000
      1.77000000	      0.00000000	     -0.00000000	      0.00000000	      0.00000000	      0.00000000	      0.00000000	      0.00000000	      0.00000000	      0.00000000	    -11.98552513	     50.05651855	   -354.23950195	   -296.32304604	  -1123.37056993	      0.00000000	      0.00000000	      0.00000000	   3769.25117267	    -11.78116377	    -82.65525715	   -533.26397705	   -313.72228980	   -676.21047547	      0.00000000	      0.00000000	     -0.00000000	  -1615.61836561	      0.00000000	     -0.00000000	      0.00000000	      0.00000000	      0.00000000	      0.00000000	      0.00000000	      0.00000000	      0.00000000
      1.78000000	      0.00000000	     -0.00000000	      0.00000000	      0.00000000	      0.00000000	      0.00000000	      0.00000000	      0.00000000	      0.00000000	    -14.63386917	     47.32490540	   -343.33062744	   -294.11282728	  -1124.64239078	      0.00000000	      0.00000000	      0.00000000	   3620.75061324	    -11.20096194	    -85.86531732	   -558.69519043	   -313.72646052	   -675.00207556	      0.00000000	      0.00000000	     -0.00000000	  -1921.54369667	      0.00000000	     -0.00000000	      0.00000000	      0.00000000	      0.00000000	      0.00000000	      0.00000000	      0.00000000	      0.00000000
      1.79000000	      0.00000000	     -0.00000000	      0.00000000	      0.00000000	      0.00000000	      0.00000000	      0.00000000	      0.00000000	      0.00000000	    -16.41796112	     45.45973206	   -330.46139526	   -291.04515679	  -1125.21334381	      0.00000000	      0.00000000	      0.00000000	   3792.00018820	    -10.36626833	    -89.21133332	   -582.41027832	   -313.31533843	   -674.79658747	      0.00000000	      0.00000000	     -0.00000000	  -1879.36348303	      0.00000000	     -0.00000000	      0.00000000	      0.00000000	      0.00000000	      0.00000000	      0.00000000	      0.00000000	      0.00000000
      1.80000000	      0.00000000	     -0.00000000	      0.00000000	      0.00000000	      0.00000000	      0.00000000	      0.00000000	      0.00000000	      0.00000000	    -17.23326874	     43.13286591	   -314.62142944	   -287.46523925	  -1125.18339776	      0.00000000	      0.00000000	      0.00000000	   3791.77872382	     -8.77612449	    -92.91129989	   -603.02178955	   -314.15613872	   -675.01057649	      0.00000000	      0.00000000	     -0.00000000	  -1894.96434014	      0.00000000	     -0.00000000	      0.00000000	      0.00000000	      0.00000000	      0.00000000	      0.00000000	      0.00000000	      0.00000000
      1.81000000	      0.00000000	     -0.00000000	      0.00000000	      0.00000000	      0.00000000	      0.00000000	      0.00000000	      0.00000000	      0.00000000	    -17.03920746	     41.52574158	   -299.17919922	   -285.39687850	  -1124.25355342	      0.00000000	      0.00000000	      0.00000000	   3782.01383027	     -6.47589568	    -95.90537205	   -615.63720703	   -314.12016959	   -675.18703107	      0.00000000	      0.00000000	     -0.00000000	  -2267.33085253	      0.00000000	     -0.00000000	      0.00000000	      0.00000000	      0.00000000	      0.00000000	      0.00000000	      0.00000000	      0.00000000
      1.82000000	      0.00000000	     -0.00000000	      0.00000000	      0.00000000	      0.00000000	      0.00000000	      0.00000000	      0.00000000	      0.00000000	    -16.22768211	     39.03624344	   -287.84167480	   -282.46571436	  -1127.50517409	      0.00000000	      0.00000000	      0.00000000	   3707.52124341	     -6.12105276	    -98.38177437	   -630.21862793	   -313.77455323	   -672.62670925	      0.00000000	      0.00000000	     -0.00000000	  -2217.89802630	      0.00000000	     -0.00000000	      0.00000000	      0.00000000	      0.00000000	      0.00000000	      0.00000000	      0.00000000	      0.00000000
      1.83000000	      0.00000000	     -0.00000000	      0.00000000	      0.00000000	      0.00000000	      0.00000000	      0.00000000	      0.00000000	      0.00000000	    -15.95764256	     36.26780701	   -275.44757080	   -279.49150674	  -1128.32340719	      0.00000000	      0.00000000	      0.00000000	   3664.42173239	     -5.86043956	   -101.13107249	   -633.75366211	   -313.85083010	   -672.87528882	      0.00000000	      0.00000000	     -0.00000000	  -2404.89755412	      0.00000000	     -0.00000000	      0.00000000	      0.00000000	      0.00000000	      0.00000000	      0.00000000	      0.00000000	      0.00000000
      1.84000000	      0.00000000	     -0.00000000	      0.00000000	      0.00000000	      0.00000000	      0.00000000	      0.00000000	      0.00000000	      0.00000000	    -15.70104980	     33.50506210	   -263.43011475	   -276.07815314	  -1129.82886786	      0.00000000	      0.00000000	      0.00000000	   3766.67153124	     -6.47589632	   -103.15178624	   -636.48248291	   -313.74664186	   -672.32433713	      0.00000000	      0.00000000	     -0.00000000	  -2500.82700060	      0.00000000	     -0.00000000	      0.00000000	      0.00000000	      0.00000000	      0.00000000	      0.00000000	      0.00000000	      0.00000000
      1.85000000	      0.00000000	     -0.00000000	      0.00000000	      0.00000000	      0.00000000	      0.00000000	      0.00000000	      0.00000000	      0.00000000	    -15.61692238	     29.04635429	   -248.99185181	   -272.11131167	  -1127.03422787	      0.00000000	      0.00000000	      0.00000000	   3967.64150380	     -7.62659403	   -103.23792200	   -637.54089355	   -313.72399047	   -672.04276528	      0.00000000	      0.00000000	     -0.00000000	  -2369.73948137	      0.00000000	     -0.00000000	      0.00000000	      0.00000000	      0.00000000	      0.00000000	      0.00000000	      0.00000000	      0.00000000
      1.86000000	      0.00000000	     -0.00000000	      0.00000000	      0.00000000	      0.00000000	      0.00000000	      0.00000000	      0.00000000	      0.00000000	    -16.60527611	     25.21421623	   -238.08166504	   -268.91584293	  -1127.84976094	      0.00000000	      0.00000000	      0.00000000	   3926.21718109	     -8.15412365	   -102.09020925	   -634.74816895	   -313.92834558	   -672.80703675	      0.00000000	      0.00000000	     -0.00000000	  -2457.39914646	      0.00000000	     -0.00000000	      0.00000000	      0.00000000	      0.00000000	      0.00000000	      0.00000000	      0.00000000	      0.00000000
      1.87000000	      0.00000000	     -0.00000000	      0.00000000	      0.00000000	      0.00000000	      0.00000000	      0.00000000	      0.00000000	      0.00000000	    -18.02052307	     22.82195854	   -227.80105591	   -266.05071012	  -1127.07469082	      0.00000000	      0.00000000	      0.00000000	   3894.82767763	     -8.32965383	    -99.18981861	   -632.57250977	   -314.26835186	   -671.75508565	      0.00000000	      0.00000000	     -0.00000000	  -2652.34697838	      0.00000000	     -0.00000000	      0.00000000	      0.00000000	      0.00000000	      0.00000000	      0.00000000	      0.00000000	      0.00000000
      1.88000000	      0.00000000	     -0.00000000	      0.00000000	      0.00000000	      0.00000000	      0.00000000	      0.00000000	      0.00000000	      0.00000000	    -18.82122803	     21.48480034	   -218.94555664	   -262.34332031	  -1130.61919311	      0.00000000	      0.00000000	      0.00000000	   3663.09680492	     -8.16359310	    -96.00567556	   -621.81311035	   -314.79246217	   -673.38326019	      0.00000000	      0.00000000	     -0.00000000	  -2798.59471486	      0.00000000	     -0.00000000	      0.00000000	      0.00000000	      0.00000000	      0.00000000	      0.00000000	      0.00000000	      0.00000000
      1.89000000	      0.00000000	     -0.00000000	      0.00000000	      0.00000000	      0.00000000	      0.00000000	      0.00000000	      0.00000000	      0.00000000	    -19.08483315	     19.95899963	   -208.71293640	   -260.57446518	  -1129.97889015	      0.00000000	      0.00000000	      0.00000000	   3642.96452761	     -8.24803497	    -92.89994740	   -616.57727051	   -315.95421317	   -673.50457839	      0.00000000	      0.00000000	     -0.00000000	  -2873.23912489	      0.00000000	     -0.00000000	      0.00000000	      0.00000000	      0.00000000	      0.00000000	      0.00000000	      0.00000000	      0.00000000
